<?xml version="1.0" encoding="UTF-8"?>
<svg version="1.1" xmlns="http://www.w3.org/2000/svg" width="512" height="512">
<path d="M0 0 C1.72616534 -0.01472144 1.72616534 -0.01472144 3.4872027 -0.02974027 C4.75722193 -0.02013527 6.02724115 -0.01053026 7.33574581 -0.00063419 C8.69397484 -0.00452486 10.05219981 -0.01016342 11.41041511 -0.01740509 C15.1510376 -0.03221162 18.89124136 -0.02194812 22.6318506 -0.00766838 C26.66257008 0.00340813 30.6932292 -0.00849008 34.72394466 -0.01751041 C42.62309364 -0.03146726 50.52208312 -0.02386892 58.42122454 -0.00883483 C67.61252065 0.00799513 76.80377669 0.00481887 85.99508344 0.00107109 C102.38967065 -0.00481188 118.78418114 0.00938165 135.17874813 0.03401852 C151.10195447 0.05794449 167.0250583 0.06502182 182.94827938 0.05452633 C200.27230893 0.04312805 217.59629102 0.04117325 234.92031997 0.05562443 C236.76604966 0.05715033 238.61177935 0.05867068 240.45750904 0.06018543 C241.36573493 0.06094325 242.27396082 0.06170106 243.20970871 0.06248184 C249.62284804 0.0672328 256.03596624 0.06536752 262.44910526 0.06112003 C270.25935209 0.05620347 278.06950182 0.06213253 285.87972636 0.08201433 C289.86779144 0.09191486 293.85570838 0.09696189 297.84378147 0.08912182 C301.48982952 0.08210053 305.13557773 0.08878535 308.78158604 0.10672545 C310.7354513 0.11273003 312.68934444 0.10390884 314.64319712 0.09467894 C315.79136626 0.10311888 316.93953541 0.11155882 318.12249756 0.12025452 C319.11953581 0.12128365 320.11657406 0.12231278 321.14382559 0.12337309 C321.92081145 0.24784848 322.69779732 0.37232388 323.49832821 0.50057125 C325.74264771 3.8670505 325.7433798 4.95679771 325.72537899 8.88997555 C325.72522793 9.99089031 325.72507687 11.09180508 325.72492123 12.22608089 C325.71459866 13.4136549 325.70427608 14.6012289 325.69364071 15.82479 C325.68939587 17.64959644 325.68939587 17.64959644 325.68506527 19.51126766 C325.67385424 23.40363484 325.64874769 27.29577341 325.62332821 31.18807125 C325.61329962 33.82413564 325.60417356 36.46020363 325.59598446 39.09627438 C325.57391187 45.56445157 325.54042509 52.03249508 325.49832821 58.50057125 C326.11916444 58.49780587 326.74000067 58.49504049 327.37965012 58.49219131 C342.47715048 58.42597475 357.5746064 58.37631183 372.67221451 58.34513474 C379.97327351 58.32965747 387.27423566 58.30855166 394.57523251 58.27425289 C400.93784737 58.24437669 407.3003921 58.2250025 413.66307515 58.21830577 C417.03294886 58.21439044 420.4026219 58.20517139 423.77243137 58.18338108 C427.53185369 58.16170911 431.29085577 58.15860009 435.05033016 58.15999508 C436.1709837 58.14920925 437.29163723 58.13842342 438.44624996 58.12731075 C439.4684866 58.13143475 440.49072323 58.13555874 441.54393673 58.1398077 C442.43346696 58.13704232 443.32299719 58.13427694 444.23948288 58.13142776 C446.98006639 58.57929754 447.81196042 59.33973442 449.49832821 61.50057125 C450.65824032 63.75179195 450.65824032 63.75179195 451.77567196 66.4263525 C452.19977352 67.43335201 452.62387508 68.44035152 453.06082821 69.47786617 C453.51457821 70.57848385 453.96832821 71.67910152 454.43582821 72.81307125 C454.92180477 73.97749752 455.40778133 75.14192379 455.90848446 76.3416357 C459.81811629 85.75169348 463.68961459 95.18234187 467.34604549 104.69393063 C469.99148717 111.54069054 472.80356388 118.23970903 475.99901676 124.85012627 C490.84247417 155.68423235 494.10935046 182.21924965 492.91953182 216.16866207 C492.73475167 222.15113986 492.67729676 228.13504923 492.60184383 234.11971188 C492.46890056 242.79933646 492.30852334 251.47745253 492.02689266 260.15364742 C491.99290371 261.49405842 491.99290371 261.49405842 491.95822811 262.86154842 C491.92802074 263.68261074 491.89781338 264.50367306 491.86669064 265.34961605 C491.84385667 266.05919051 491.8210227 266.76876497 491.7974968 267.49984169 C491.44652652 269.84700192 490.73330245 271.47989523 489.49832821 273.50057125 C487.19012313 274.65467379 485.89048545 274.62160095 483.3240118 274.61409664 C482.03289989 274.61398335 482.03289989 274.61398335 480.71570492 274.61386776 C479.78545498 274.60870647 478.85520504 274.60354519 477.89676571 274.5982275 C476.94516567 274.59681255 475.99356564 274.59539761 475.01312923 274.59393978 C471.96649724 274.58833137 468.91993808 274.57577745 465.87332821 274.56307125 C463.81082927 274.55805733 461.74832918 274.55349424 459.68582821 274.54939938 C454.62330004 274.53835921 449.56082648 274.52108892 444.49832821 274.50057125 C444.35516171 275.75756832 444.2119952 277.01456539 444.06449032 278.30965328 C442.96692555 287.94623489 437.27225817 295.79538488 430.35770321 302.3013525 C419.46141377 310.68196856 407.83191489 312.43020379 394.49832821 311.50057125 C383.26582961 309.29133574 372.95118881 303.07391967 366.49832821 293.50057125 C362.66338678 287.08051611 361.17395943 282.04091174 359.49832821 274.50057125 C319.23832821 274.50057125 278.97832821 274.50057125 237.49832821 274.50057125 C237.16832821 277.14057125 236.83832821 279.78057125 236.49832821 282.50057125 C235.22879696 285.73104 235.22879696 285.73104 233.68582821 288.68807125 C233.1843829 289.67162594 232.68293758 290.65518063 232.16629696 291.66854 C226.39119564 301.47403991 217.47672922 307.05200949 206.93582821 310.75057125 C195.08448884 313.31176443 183.2533344 311.9445748 172.74442196 305.92244625 C160.71456377 297.96230164 155.60460765 288.47882872 152.49832821 274.50057125 C144.24832821 274.83057125 135.99832821 275.16057125 127.49832821 275.50057125 C127.00332821 277.41869625 126.50832821 279.33682125 125.99832821 281.31307125 C122.3031583 293.15821522 115.24427757 301.36209212 104.49832821 307.50057125 C93.75755873 312.70866414 82.20802338 313.04561481 70.74832821 310.00057125 C59.63932627 306.11993589 51.19147189 299.03419147 46.02957821 288.5044775 C43.87246845 283.60903674 42.37065945 279.87565176 42.49832821 274.50057125 C41.90364239 274.5094537 41.30895657 274.51833614 40.69624996 274.52748775 C34.51603447 274.61586771 28.33599796 274.67626642 22.15531063 274.72029781 C19.84761929 274.74043389 17.5399791 274.76774481 15.23245907 274.80232906 C11.91861013 274.85075841 8.60543473 274.87352009 5.29129696 274.89119625 C4.25683941 274.91184139 3.22238186 274.93248653 2.15657711 274.95375729 C0.71542286 274.95421047 0.71542286 274.95421047 -0.75484562 274.95467281 C-1.60089863 274.96355526 -2.44695164 274.97243771 -3.31864262 274.98158932 C-5.50167179 274.50057125 -5.50167179 274.50057125 -7.1145159 272.76021004 C-8.69218077 270.19023737 -8.87738654 268.85229698 -8.87919521 265.8653326 C-8.88701846 264.93325198 -8.8948417 264.00117136 -8.90290201 263.04084587 C-8.89620984 262.02023347 -8.88951768 260.99962107 -8.88262272 259.94808102 C-8.88730269 258.86126065 -8.89198266 257.77444029 -8.89680445 256.65468597 C-8.9088035 253.00032695 -8.8992778 249.34633954 -8.88985538 245.6919775 C-8.89391889 243.077219 -8.89925952 240.46246222 -8.90578556 237.8477087 C-8.9191363 231.47540921 -8.91623922 225.10321564 -8.90754764 218.73091197 C-8.90077676 213.55273331 -8.89985179 208.37458436 -8.90311909 203.19640255 C-8.90357879 202.45985331 -8.90403849 201.72330407 -8.90451211 200.96443516 C-8.90547128 199.46822221 -8.90644392 197.97200927 -8.90742989 196.47579634 C-8.91598771 182.44067356 -8.90614352 168.40560954 -8.89002879 154.37049639 C-8.87662524 142.32365598 -8.87895322 130.27690229 -8.89278507 118.23006344 C-8.90883398 104.24569775 -8.9151637 90.26138357 -8.90594828 76.27700996 C-8.90499262 74.7862533 -8.90404951 73.29549663 -8.90311909 71.80473995 C-8.90265626 71.07122942 -8.90219343 70.33771889 -8.90171658 69.58198076 C-8.89912462 64.40908992 -8.90350212 59.2362317 -8.91055775 54.06334591 C-8.91984252 47.10304039 -8.91324683 40.14290171 -8.89587498 33.18261242 C-8.89189803 30.62355097 -8.89306469 28.06447577 -8.89966297 25.50541973 C-8.90782064 22.02111179 -8.8976264 18.53733526 -8.88262272 15.05306149 C-8.88931488 14.03244908 -8.89600705 13.01183668 -8.90290201 11.96029663 C-8.89507877 11.02821601 -8.88725552 10.09613539 -8.87919521 9.1358099 C-8.87846463 7.92927336 -8.87846463 7.92927336 -8.87771928 6.69836235 C-7.9355965 1.19217199 -5.26404343 0.00056661 0 0 Z " fill="#020202" transform="translate(16.50167179107666,191.49942874908447)"/>
<path d="M0 0 C102.63 0 205.26 0 311 0 C311 64.35 311 128.7 311 195 C208.37 195 105.74 195 0 195 C0 130.65 0 66.3 0 0 Z " fill="#FAD07A" transform="translate(20,203)"/>
<path d="M0 0 C102.63 0 205.26 0 311 0 C311 64.35 311 128.7 311 195 C208.37 195 105.74 195 0 195 C0 130.65 0 66.3 0 0 Z M49.0625 26.125 C46.28167433 30.00130244 45.87327876 32.63250807 45.84609985 37.28019714 C45.83749939 38.37501404 45.82889893 39.46983093 45.82003784 40.5978241 C45.81577789 41.79941666 45.81151794 43.00100922 45.80712891 44.23901367 C45.79895142 45.50431915 45.79077393 46.76962463 45.78234863 48.07327271 C45.75615502 52.27148312 45.7408218 56.46970337 45.7265625 60.66796875 C45.72120137 62.11496804 45.71582386 63.56196727 45.71043015 65.00896645 C45.68880366 71.03021347 45.67006881 77.05145785 45.65880775 83.07273388 C45.64258051 91.6918304 45.60943049 100.31047529 45.55240691 108.92940158 C45.5136504 114.99492968 45.49416824 121.06033728 45.48888719 127.12598592 C45.48524094 130.74592591 45.47329869 134.36538391 45.44078445 137.98518944 C45.40498771 142.02840192 45.40908905 146.07064941 45.41650391 150.11401367 C45.40009857 151.30548508 45.38369324 152.49695648 45.36679077 153.72453308 C45.41948918 160.74962653 46.09163583 165.75683891 51 171 C51.72408176 171.77842019 51.72408176 171.77842019 52.46279144 172.57256603 C59.23214112 178.11213693 69.1939366 176.67965191 77.43798828 176.61523438 C79.32103983 176.61873811 81.20408841 176.62439953 83.08712769 176.63204956 C88.18626536 176.6462689 93.28486195 176.62926503 98.38394785 176.60576439 C103.72494692 176.58562581 109.06592419 176.59153641 114.4069519 176.59387207 C123.37311709 176.59381854 132.33907124 176.57408442 141.30517578 176.54199219 C151.66856758 176.50507881 162.03168323 176.49632019 172.39513218 176.5032897 C182.37122582 176.50959576 192.34722486 176.49883993 202.32329941 176.47932434 C206.56638818 176.47115361 210.80942859 176.46844018 215.05252457 176.47001648 C220.04800146 176.47089572 225.04321611 176.45666853 230.03862381 176.43078995 C231.87118763 176.42363137 233.70377935 176.42154304 235.53635406 176.42490768 C238.0389345 176.42862592 240.54075105 176.41386351 243.04324341 176.39440918 C244.12943551 176.40240107 244.12943551 176.40240107 245.23757088 176.41055441 C250.69499467 176.33742017 254.75068405 175.02822934 258.828125 171.3515625 C259.29734375 170.78179687 259.7665625 170.21203125 260.25 169.625 C260.72953125 169.06039062 261.2090625 168.49578125 261.703125 167.9140625 C264.39660446 163.93874644 265.25024602 160.3544673 265.26742554 155.59318542 C265.27595551 154.52086166 265.28448547 153.4485379 265.29327393 152.34371948 C265.29236755 151.17736969 265.29146118 150.0110199 265.29052734 148.80932617 C265.29724457 147.57298935 265.30396179 146.33665253 265.31088257 145.06285095 C265.32661251 141.67834503 265.33323686 138.29408454 265.33451414 134.90955901 C265.33593795 132.79230374 265.34021191 130.67507401 265.34550858 128.55782509 C265.36400124 121.16345213 265.37218028 113.76915118 265.37060547 106.37475586 C265.36940474 99.49518063 265.39049537 92.61591946 265.4220928 85.73642367 C265.44829541 79.81945903 265.45897108 73.90259671 265.45769465 67.98557454 C265.45718612 64.45630138 265.46280823 60.92730736 265.48405075 57.39809227 C265.50711833 53.45822402 265.49788781 49.51878208 265.48583984 45.57885742 C265.49707886 44.41858032 265.50831787 43.25830322 265.51989746 42.06286621 C265.46376994 34.83174778 264.66350593 28.93558912 259.58807945 23.48321819 C254.18144619 18.66971101 249.27596248 17.70221848 242.23942566 17.72584534 C241.46492311 17.72060866 240.69042057 17.71537198 239.89244825 17.70997661 C237.30088634 17.69499186 234.70952215 17.6942718 232.11791992 17.69360352 C230.25826179 17.68598101 228.39860682 17.67755335 226.53895569 17.66838074 C221.4892828 17.64643801 216.43967046 17.63763714 211.38995528 17.63255429 C208.23414311 17.62891049 205.07834679 17.62267031 201.92254066 17.6155529 C190.91018604 17.5910593 179.89787852 17.57800667 168.88549805 17.57446289 C158.6249662 17.57082758 148.36473347 17.54093222 138.10429305 17.49905831 C129.29139087 17.46435445 120.47858781 17.44891443 111.66561776 17.44821686 C106.40369987 17.44742409 101.1420867 17.43868517 95.88023949 17.41021919 C90.92987603 17.38403702 85.98006992 17.38183429 81.02966881 17.39787483 C79.21566044 17.39968919 77.40162002 17.3929998 75.58768082 17.37705612 C64.58839624 17.28629298 56.74353613 17.52433558 49.0625 26.125 Z " fill="#7099C4" transform="translate(20,203)"/>
<path d="M0 0 C37.95 0 75.9 0 115 0 C118.50454574 7.59318244 121.93958819 15.05611197 124.99609375 22.8125 C125.35155777 23.70517578 125.70702179 24.59785156 126.07325745 25.51757812 C127.19801776 28.34373625 128.31806729 31.17172796 129.4375 34 C130.51536292 36.71642114 131.59438639 39.43233359 132.67814636 42.14640808 C133.44817702 44.0901989 134.20661567 46.03861269 134.95478821 47.99092102 C137.05373665 53.40405108 139.29095623 58.67383083 141.87883568 63.86801243 C154.92990415 90.19608526 155.92221795 113.92305296 155.02996826 142.96966553 C154.87323407 148.63578772 154.80733412 154.30301349 154.73242188 159.97070312 C154.57414951 170.98369264 154.31165907 181.99028364 154 193 C142.45 193 130.9 193 119 193 C117.68 188.71 116.36 184.42 115 180 C109.23519799 170.46590436 102.46642172 163.19850757 92 159 C90.67742187 158.46632813 90.67742187 158.46632813 89.328125 157.921875 C79.24168545 155.1279786 67.00222505 155.72222819 57.64453125 160.39453125 C44.39390793 168.43885353 38.68565648 178.25737408 35 193 C23.45 193 11.9 193 0 193 C0 129.31 0 65.62 0 0 Z " fill="#ED524F" transform="translate(342,262)"/>
<path d="M0 0 C16.02041787 11.83374866 26.93871771 26.93694928 30.4921875 46.703125 C34.64951533 79.59055767 12.89890005 113.55369209 -2.45947266 141.23632812 C-4.77131831 145.4381549 -7.02899688 149.66838389 -9.29003906 153.89770508 C-14.29577613 163.25771947 -19.3674574 172.57221365 -24.6328125 181.7890625 C-25.10912109 182.6231665 -25.58542969 183.45727051 -26.07617188 184.31665039 C-27.39410231 186.60732784 -28.72783532 188.88769911 -30.0703125 191.1640625 C-30.51358887 191.92710693 -30.95686523 192.69015137 -31.41357422 193.47631836 C-32.06156982 194.5611853 -32.06156982 194.5611853 -32.72265625 195.66796875 C-33.10284912 196.31064697 -33.48304199 196.9533252 -33.87475586 197.61547852 C-35.0703125 199.1640625 -35.0703125 199.1640625 -38.0703125 200.4765625 C-41.38043278 200.1317583 -42.42278925 199.37111442 -44.66015625 196.99975586 C-47.88275229 192.80469013 -50.14192671 187.96944048 -52.5703125 183.2890625 C-53.81949064 180.92201702 -55.07043211 178.55600369 -56.32421875 176.19140625 C-56.639319 175.59530045 -56.95441925 174.99919464 -57.27906799 174.38502502 C-60.23780141 168.80497391 -63.36112722 163.32694113 -66.5078125 157.8515625 C-114.80090838 73.20731294 -114.80090838 73.20731294 -107.03515625 40.60546875 C-101.57964093 21.14672786 -89.41195785 6.13653105 -71.95654297 -3.84912109 C-49.5084722 -15.5932451 -20.9545847 -13.95230453 0 0 Z M-58.0703125 42.1640625 C-62.69779789 48.59251517 -64.87710555 54.76863399 -63.6953125 62.671875 C-61.93468573 69.8684369 -58.22749455 75.22507109 -52.1640625 79.51171875 C-46.12457394 83.08167067 -40.95340459 83.88125878 -34.0703125 83.1640625 C-25.78061129 80.76200735 -20.44536343 75.7377242 -16.0859375 68.3984375 C-13.58346645 62.89300119 -13.47511519 57.30626092 -15.1328125 51.5390625 C-18.23676342 43.69604365 -22.57335015 38.47173296 -30.35546875 35.0078125 C-40.22050386 31.94184475 -51.13547609 34.28890929 -58.0703125 42.1640625 Z " fill="#EC524F" transform="translate(477.0703125,21.8359375)"/>
<path d="M0 0 C1.16047218 -0.00679667 1.16047218 -0.00679667 2.34438825 -0.01373065 C4.93906435 -0.02639976 7.53353123 -0.02475265 10.12823486 -0.02310181 C11.98774486 -0.02908558 13.84725236 -0.03589077 15.70675659 -0.04345703 C20.76062797 -0.06114177 25.81443163 -0.06581351 30.86833096 -0.0670886 C35.08787224 -0.06898727 39.30739774 -0.07634463 43.52693295 -0.08343279 C53.48421099 -0.09972451 63.44145285 -0.10460111 73.39874268 -0.10317993 C83.66659582 -0.10197895 93.93423861 -0.12307033 104.20203853 -0.15466726 C113.01916643 -0.18083217 121.83622565 -0.1915471 130.65339208 -0.19026911 C135.91862836 -0.18975945 141.18367784 -0.19544473 146.44887543 -0.21662521 C151.40327359 -0.23601059 156.35730684 -0.23612992 161.31171799 -0.22159195 C163.12733112 -0.21950298 164.94296711 -0.22420999 166.75854111 -0.23631287 C169.24326231 -0.25179976 171.72673065 -0.24243526 174.21142578 -0.22705078 C175.28129923 -0.24248147 175.28129923 -0.24248147 176.37278628 -0.25822389 C182.64681054 -0.17277248 187.96116097 1.89621395 192.41827393 6.30258179 C192.87331299 6.97160522 193.32835205 7.64062866 193.79718018 8.32992554 C194.27026611 9.0015271 194.74335205 9.67312866 195.23077393 10.36508179 C197.25099535 13.76939954 197.48908362 16.5639692 197.5068512 20.43373108 C197.51758415 22.03809273 197.51758415 22.03809273 197.52853394 23.67486572 C197.53122284 24.84840607 197.53391174 26.02194641 197.53668213 27.23104858 C197.54325333 28.46709335 197.54982452 29.70313812 197.55659485 30.97663879 C197.57634614 35.07747641 197.58799715 39.17827489 197.59796143 43.27914429 C197.60200998 44.69271171 197.60612693 46.10627894 197.61031151 47.51984596 C197.62936112 54.16307995 197.64359129 60.80630286 197.65192348 67.44955891 C197.66168831 75.10793804 197.68798875 82.76602754 197.72842437 90.42430466 C197.75863218 96.34970899 197.77339685 102.27503052 197.77670449 108.20051032 C197.77905014 111.73653858 197.78794636 115.27225737 197.81316566 118.80820274 C197.84088016 122.75783823 197.83660095 126.70709605 197.82965088 130.65682983 C197.84886597 132.40195862 197.84886597 132.40195862 197.86846924 134.18234253 C197.81907769 141.89054071 196.79933842 147.36914619 191.54327393 153.32601929 C190.96706299 153.78105835 190.39085205 154.23609741 189.79718018 154.70492554 C189.21839111 155.17801147 188.63960205 155.65109741 188.04327393 156.13851929 C184.1919293 158.72097543 180.20720792 158.41830768 175.76368713 158.42132568 C174.59224593 158.42789906 174.59224593 158.42789906 173.39713925 158.43460524 C170.77177612 158.44799428 168.14644655 158.45417235 165.52105713 158.46029663 C163.64199166 158.46819754 161.76292771 158.47646648 159.88386536 158.4850769 C153.70524546 158.51129915 147.52661878 158.52660513 141.34796143 158.54086304 C139.22117801 158.54622271 137.09439464 158.55160021 134.96761131 158.55699539 C126.12064991 158.57862475 117.27369033 158.59736138 108.42670918 158.60861778 C95.74732837 158.62485628 83.06825405 158.65803119 70.38898879 158.71501863 C61.47422732 158.75372034 52.5595478 158.77325078 43.64470452 158.77853835 C38.32014442 158.78219157 32.99591119 158.79421 27.67144203 158.82664108 C22.66038972 158.85672544 17.649862 158.86303212 12.63873863 158.85125732 C10.80214863 158.85103662 8.96553427 158.85933915 7.12902832 158.87691116 C-10.06355653 159.03242402 -10.06355653 159.03242402 -15.17938805 154.84135532 C-15.66149553 154.32195849 -16.14360302 153.80256166 -16.64031982 153.26742554 C-17.40763648 152.44562129 -17.40763648 152.44562129 -18.19045448 151.60721493 C-22.64181318 145.76573931 -22.34123447 139.52136559 -22.27142334 132.44491577 C-22.2821563 130.54345291 -22.2821563 130.54345291 -22.29310608 128.60357666 C-22.31153098 125.14680912 -22.29873993 121.69081852 -22.27901578 118.23408389 C-22.26255699 114.6058717 -22.27145201 110.97770593 -22.27653503 107.34947205 C-22.2810474 101.25925369 -22.26523832 95.16934333 -22.23724365 89.07919312 C-22.20518095 82.05010097 -22.20521569 75.02156366 -22.22245842 67.99243206 C-22.23835094 61.21351798 -22.23157347 54.43480624 -22.21452141 47.65590096 C-22.20767034 44.7784387 -22.20866316 41.90113958 -22.21606636 39.02367973 C-22.22518729 35.00232267 -22.20113565 30.98181498 -22.17376709 26.96054077 C-22.18029297 25.77332932 -22.18681885 24.58611786 -22.19354248 23.3629303 C-22.10692095 15.87254999 -21.25319485 11.2144915 -16.07781982 5.56039429 C-10.49500767 1.26709037 -7.03722162 -0.03018078 0 0 Z M-8.48487854 13.03878784 C-11.78408748 17.98067627 -11.34599218 22.5944774 -11.30316162 28.41390991 C-11.31352951 29.64531204 -11.3238974 30.87671417 -11.33457947 32.14543152 C-11.35701988 35.51572651 -11.35693608 38.88448376 -11.34487891 42.25473213 C-11.33774043 45.07043768 -11.34625155 47.88600677 -11.35478431 50.70170164 C-11.37472671 57.34466594 -11.36917818 63.98727027 -11.34710693 70.63021851 C-11.32473693 77.47939199 -11.34235042 84.32762325 -11.38015622 91.17670774 C-11.41140027 97.06226129 -11.41930343 102.9475233 -11.40820247 108.83314943 C-11.40171857 112.34620836 -11.40370141 115.85872349 -11.42752647 119.37171936 C-11.45273852 123.28850113 -11.42915076 127.20416308 -11.40081787 131.12094116 C-11.4145343 132.28265335 -11.42825073 133.44436554 -11.44238281 134.64128113 C-11.42690903 135.70952621 -11.41143524 136.7777713 -11.39549255 137.87838745 C-11.39452922 138.80382607 -11.39356588 139.72926468 -11.39257336 140.68274689 C-10.48737285 143.79293824 -9.00269896 145.37036623 -6.42321342 147.30189836 C-3.36995768 148.95539097 -0.30646343 148.9528061 3.07087708 148.89561462 C4.20646094 148.90625621 4.20646094 148.90625621 5.36498588 148.91711277 C7.89181605 148.93466006 10.41710127 148.91660608 12.94390869 148.89852905 C14.75932514 148.9036691 16.57473661 148.91095103 18.39013672 148.92021179 C23.31370193 148.93872175 28.23672543 148.92579026 33.16026807 148.90612149 C38.31357275 148.88973289 43.46684319 148.89854807 48.62016296 148.90364075 C57.27292533 148.90816105 65.92547148 148.8922947 74.57818604 148.86434937 C84.58260415 148.83228768 94.58663252 148.83231735 104.59107834 148.84956414 C114.21585323 148.8654253 123.8404852 148.85869894 133.46525383 148.84162712 C137.56126649 148.83475371 141.65716468 148.83579204 145.75317574 148.84317207 C150.57550202 148.85083078 155.39738443 148.83872232 160.21963501 148.81132317 C161.98972697 148.80443428 163.75986034 148.80434676 165.5299511 148.8115387 C167.94561902 148.82022301 170.35991385 148.80429623 172.77546692 148.78208923 C173.82721968 148.79445038 173.82721968 148.79445038 174.90021998 148.80706125 C179.62739526 148.72680045 182.07469023 147.65755918 185.35968018 144.26742554 C186.35199504 141.29048095 186.49690032 139.3037232 186.52030945 136.19482422 C186.53537788 134.62182304 186.53537788 134.62182304 186.55075073 133.01704407 C186.55658173 131.8668428 186.56241272 130.71664154 186.56842041 129.53158569 C186.57820419 128.31998276 186.58798798 127.10837982 186.59806824 125.86006165 C186.62803548 121.84221357 186.64971207 117.82440094 186.66827393 113.80648804 C186.67321991 112.78078429 186.67321991 112.78078429 186.67826581 111.73435926 C186.70903846 105.28497971 186.73574291 98.83559543 186.75268459 92.38616371 C186.77460326 84.13931323 186.81660969 75.89311276 186.88612217 67.64652216 C186.93335582 61.84601052 186.95761695 56.04567434 186.96488148 50.2449764 C186.96983773 46.7809602 186.98491384 43.3176772 187.02462578 39.85387039 C187.06834579 35.98973808 187.06459657 32.12644306 187.05670166 28.26205444 C187.07670227 27.11590164 187.09670288 25.96974884 187.11730957 24.78886414 C187.1736597 19.35118414 187.1736597 19.35118414 185.19001961 14.43624496 C181.84859689 11.33505659 178.7277291 10.66515623 174.30499268 10.77914429 C172.64210205 10.80331421 172.64210205 10.80331421 170.94561768 10.82797241 C169.23245361 10.89081421 169.23245361 10.89081421 167.48468018 10.95492554 C166.31936768 10.97748413 165.15405518 11.00004272 163.95343018 11.02328491 C161.08752072 11.08201256 158.22427095 11.16409679 155.35968018 11.26742554 C155.34937271 12.17531326 155.33906525 13.08320099 155.32844543 14.01860046 C155.23053368 22.56781056 155.1280282 31.11695051 155.02034092 39.66604328 C154.96513835 44.06138412 154.91172257 48.45673165 154.86236572 52.85214233 C154.8146829 57.09265654 154.7623386 61.33308976 154.70673943 65.57350731 C154.68633365 67.19262873 154.66761762 68.81177235 154.65060616 70.430933 C154.62652282 72.69592954 154.59647367 74.96077325 154.56500244 77.22567749 C154.54945816 78.51585281 154.53391388 79.80602814 154.51789856 81.13529968 C154.35968018 84.26742554 154.35968018 84.26742554 153.35968018 87.26742554 C150.67608643 87.62289429 150.67608643 87.62289429 147.35968018 87.26742554 C145.35985885 85.38187971 143.89823928 83.75808091 142.29718018 81.57992554 C139.18899152 77.53878926 136.03548875 73.79908475 132.35968018 70.26742554 C130.5204223 72.55455464 128.68816523 74.84671088 126.85968018 77.14242554 C126.33503174 77.7934021 125.8103833 78.44437866 125.26983643 79.11508179 C124.77354736 79.7402771 124.2772583 80.36547241 123.76593018 81.00961304 C123.30509033 81.58566284 122.84425049 82.16171265 122.3694458 82.75521851 C121.1745736 84.24157952 121.1745736 84.24157952 121.35968018 86.26742554 C117.98468018 86.89242554 117.98468018 86.89242554 114.35968018 87.26742554 C111.47339533 84.38114069 112.08194378 82.29001345 112.04083252 78.24740601 C112.0307869 77.52534973 112.02074127 76.80329346 112.01039124 76.05935669 C111.97944945 73.66778373 111.96249391 71.27632325 111.94561768 68.88461304 C111.92691483 67.22836329 111.90734209 65.57212315 111.88693237 63.91589355 C111.83551163 59.55282245 111.79593932 55.18972041 111.75878906 50.82650757 C111.711785 45.59346809 111.65014477 40.36058325 111.59094238 35.12767029 C111.50260897 27.17431744 111.43293167 19.22099605 111.35968018 11.26742554 C95.84968018 11.26742554 80.33968018 11.26742554 64.35968018 11.26742554 C64.32229736 16.50230835 64.28491455 21.73719116 64.24639893 27.13070679 C64.21612865 30.443891 64.18498711 33.75702085 64.1506958 37.07015991 C64.09633109 42.33079325 64.04522309 47.59131908 64.01324463 52.85214233 C63.98726578 57.09279153 63.94690241 61.33308058 63.89649391 65.57350731 C63.87978837 67.19260369 63.8682971 68.81176242 63.86206627 70.430933 C63.85246487 72.69623336 63.82445532 74.96060467 63.79205322 77.22567749 C63.78095016 78.51585281 63.76984711 79.80602814 63.75840759 81.13529968 C63.35968018 84.26742554 63.35968018 84.26742554 61.98085022 86.20436096 C60.35968018 87.26742554 60.35968018 87.26742554 57.98858643 87.31820679 C54.40540177 85.88599776 52.57458914 83.4363249 50.29718018 80.45492554 C47.47641575 76.87389382 44.66604207 73.42106863 41.35968018 70.26742554 C41.02758545 70.74687622 40.69549072 71.2263269 40.35333252 71.7203064 C38.83172028 73.89505605 37.28380638 76.04969912 35.73468018 78.20492554 C35.21260986 78.95967163 34.69053955 79.71441772 34.15264893 80.49203491 C30.15677071 85.99253393 30.15677071 85.99253393 26.08624268 87.39633179 C23.35968018 87.26742554 23.35968018 87.26742554 21.35968018 85.26742554 C21.08120728 82.21759033 21.08120728 82.21759033 21.04083252 78.24740601 C21.0307869 77.52534973 21.02074127 76.80329346 21.01039124 76.05935669 C20.97944945 73.66778373 20.96249391 71.27632325 20.94561768 68.88461304 C20.92691483 67.22836329 20.90734209 65.57212315 20.88693237 63.91589355 C20.83551163 59.55282245 20.79593932 55.18972041 20.75878906 50.82650757 C20.71881155 46.37574552 20.66769077 41.92511322 20.61749268 37.47445679 C20.52061575 28.73886819 20.43624885 20.00321562 20.35968018 11.26742554 C16.13087606 11.12200586 11.90271605 11.03331027 7.67218018 10.95492554 C6.47399658 10.91303101 5.27581299 10.87113647 4.0413208 10.82797241 C2.88438721 10.81185913 1.72745361 10.79574585 0.53546143 10.77914429 C-0.5276123 10.75296021 -1.59068604 10.72677612 -2.68597412 10.69979858 C-5.76316974 11.10776302 -5.76316974 11.10776302 -8.48487854 13.03878784 Z " fill="#040302" transform="translate(87.64031982421875,220.73257446289063)"/>
<path d="M0 0 C10.90389528 8.41604433 17.01018675 19.6843892 19.59375 33.078125 C23.97236905 67.26503524 -9.6731399 113.27209444 -27 141 C-28 142 -28 142 -31.25 142.5625 C-32.4875 142.376875 -33.725 142.19125 -35 142 C-36.86090373 139.36556899 -38.4334776 136.80729221 -40 134 C-40.79736572 132.59681519 -40.79736572 132.59681519 -41.61083984 131.1652832 C-43.44601747 127.91154474 -45.25710928 124.64535623 -47.0625 121.375 C-47.7281806 120.17016076 -48.39387085 118.96532686 -49.05957031 117.76049805 C-50.07115642 115.92898561 -51.08227185 114.09721966 -52.09213257 112.26475525 C-54.13317956 108.56220409 -56.19138293 104.86983279 -58.26171875 101.18359375 C-86.1455398 51.26190802 -86.1455398 51.26190802 -81.3046875 27.6015625 C-76.99981732 13.52933982 -68.34728775 2.43428597 -55.48828125 -4.78515625 C-37.2249288 -13.70180085 -16.46060973 -11.79723294 0 0 Z M-42.8125 30.375 C-46.11785861 34.34143033 -47.22997136 37.17377346 -47.0625 42.3125 C-46.31269647 47.83882974 -43.15142026 51.44681934 -39 55 C-34.11693102 56.62768966 -28.72398996 57.17247805 -23.89453125 55.09375 C-19.88849313 52.42875236 -17.5452268 49.63568039 -16 45 C-15.23295085 39.60904895 -15.95287515 35.62322391 -19 31 C-26.71930094 23.68697806 -34.54779198 23.39591323 -42.8125 30.375 Z " fill="#EB514E" transform="translate(87,30)"/>
<path d="M0 0 C102.63 0 205.26 0 311 0 C311 15.18 311 30.36 311 46 C285.59 46 260.18 46 234 46 C232.02 39.565 232.02 39.565 230 33 C224.23519799 23.46590436 217.46642172 16.19850757 207 12 C206.11828125 11.64421875 205.2365625 11.2884375 204.328125 10.921875 C194.24168545 8.1279786 182.00222505 8.72222819 172.64453125 13.39453125 C159.39390793 21.43885353 153.68565648 31.25737408 150 46 C141.09 46 132.18 46 123 46 C122.46375 44.040625 121.9275 42.08125 121.375 40.0625 C119.71580129 34.60914798 117.66570109 30.36157361 114.26953125 25.8046875 C113 24 113 24 112 21 C110.16077134 19.94193397 110.16077134 19.94193397 108 19 C105.87804041 17.54343501 103.79033178 16.04641879 101.70703125 14.53515625 C94.92454462 10.68881102 88.29142864 9.46256374 80.5625 9.5625 C79.31364014 9.57494751 79.31364014 9.57494751 78.03955078 9.58764648 C66.37317932 9.90822642 58.58445033 14.65498422 50.28125 22.65625 C43.9816023 29.47015465 41.22856087 37.08575652 39 46 C26.13 46 13.26 46 0 46 C0 30.82 0 15.64 0 0 Z " fill="#7199C4" transform="translate(20,409)"/>
<path d="M0 0 C9.0423009 6.90609389 15.48295199 16.34451083 17.5625 27.6875 C20.56511129 54.96423386 -0.90373085 84.63296059 -14.03955078 107.24365234 C-15.87690305 110.45564958 -17.62425282 113.71426541 -19.35717773 116.98364258 C-20.94219626 119.48349439 -22.32033407 119.66087138 -25.1875 120.3125 C-28.4375 119.6875 -28.4375 119.6875 -29.84765625 118.05761719 C-33.74281192 111.95177079 -37.28038638 105.70258375 -40.6875 99.3125 C-41.25106201 98.26175293 -41.81462402 97.21100586 -42.39526367 96.12841797 C-43.53899422 93.9930444 -44.68054217 91.85650028 -45.81982422 89.71875 C-47.27882773 86.98482493 -48.7487898 84.25717966 -50.22265625 81.53125 C-71.5122922 41.942617 -71.5122922 41.942617 -66.71484375 22.8046875 C-63.53924457 12.93421041 -57.02993129 4.5222253 -48.4375 -1.3125 C-32.52823414 -9.30856331 -15.29237207 -10.16439102 0 0 Z M-35.3125 28.875 C-36.78854276 32.56510691 -37.23366934 35.81280919 -36.4375 39.6875 C-34.03452886 43.61963459 -32.24227144 45.31492063 -28.0625 47.25 C-23.477975 47.80330474 -21.37633497 47.06566451 -17.4375 44.6875 C-14.81287491 41.65908643 -13.59616039 39.63946232 -12.9375 35.6875 C-13.75077089 30.80787467 -15.98941771 27.80140945 -19.875 24.8125 C-25.83989756 22.19376449 -31.09121368 23.95016596 -35.3125 28.875 Z " fill="#EA514E" transform="translate(242.4375,59.3125)"/>
<path d="M0 0 C16.02041787 11.83374866 26.93871771 26.93694928 30.4921875 46.703125 C34.64951533 79.59055767 12.89890005 113.55369209 -2.45947266 141.23632812 C-4.77131831 145.4381549 -7.02899688 149.66838389 -9.29003906 153.89770508 C-14.29577613 163.25771947 -19.3674574 172.57221365 -24.6328125 181.7890625 C-25.10912109 182.6231665 -25.58542969 183.45727051 -26.07617188 184.31665039 C-27.39410231 186.60732784 -28.72783532 188.88769911 -30.0703125 191.1640625 C-30.51358887 191.92710693 -30.95686523 192.69015137 -31.41357422 193.47631836 C-32.06156982 194.5611853 -32.06156982 194.5611853 -32.72265625 195.66796875 C-33.10284912 196.31064697 -33.48304199 196.9533252 -33.87475586 197.61547852 C-35.0703125 199.1640625 -35.0703125 199.1640625 -38.0703125 200.4765625 C-41.38043278 200.1317583 -42.42278925 199.37111442 -44.66015625 196.99975586 C-47.88275229 192.80469013 -50.14192671 187.96944048 -52.5703125 183.2890625 C-53.81949064 180.92201702 -55.07043211 178.55600369 -56.32421875 176.19140625 C-56.639319 175.59530045 -56.95441925 174.99919464 -57.27906799 174.38502502 C-60.23780141 168.80497391 -63.36112722 163.32694113 -66.5078125 157.8515625 C-114.80090838 73.20731294 -114.80090838 73.20731294 -107.03515625 40.60546875 C-101.57964093 21.14672786 -89.41195785 6.13653105 -71.95654297 -3.84912109 C-49.5084722 -15.5932451 -20.9545847 -13.95230453 0 0 Z M-76.0703125 13.1640625 C-76.70839844 13.63714844 -77.34648437 14.11023437 -78.00390625 14.59765625 C-87.77137561 22.276758 -95.57439566 35.7924259 -97.0703125 48.1640625 C-98.70860673 67.73503683 -91.44700983 83.87199098 -83.0703125 101.1640625 C-82.78762512 101.74792725 -82.50493774 102.33179199 -82.21368408 102.93334961 C-74.39776159 119.04932495 -66.27987861 134.9194874 -57.33203125 150.44140625 C-53.50970409 157.09062598 -49.88112245 163.84271807 -46.2578125 170.6015625 C-45.33137939 172.32898682 -45.33137939 172.32898682 -44.38623047 174.09130859 C-42.94566914 176.7812063 -41.50686824 179.47202401 -40.0703125 182.1640625 C-39.4103125 182.1640625 -38.7503125 182.1640625 -38.0703125 182.1640625 C-37.72887207 181.53129395 -37.38743164 180.89852539 -37.03564453 180.24658203 C-25.68672242 159.22541274 -25.68672242 159.22541274 -20.1953125 149.4140625 C-8.28639527 128.02581472 3.10225044 106.59973733 12.9296875 84.1640625 C13.30544922 83.32810547 13.68121094 82.49214844 14.06835938 81.63085938 C20.10754775 67.98676713 21.5662874 53.04208982 16.9921875 38.6640625 C9.80342184 21.64122697 -2.34298198 10.10645705 -19.19726562 2.89892578 C-38.20753527 -4.55948293 -60.52018486 1.02802806 -76.0703125 13.1640625 Z " fill="#020000" transform="translate(477.0703125,21.8359375)"/>
<path d="M0 0 C20.13 0 40.26 0 61 0 C67.25 15.1875 67.25 15.1875 69.31396484 20.20581055 C72.39403998 27.69202377 75.48412125 35.17379348 78.6015625 42.64453125 C79.15988455 43.98475948 79.71815409 45.32500959 80.27636719 46.6652832 C81.07200618 48.5755458 81.86881878 50.48527035 82.66955566 52.3934021 C83.40516036 54.1464035 84.13629402 55.90127908 84.8671875 57.65625 C85.28081543 58.64431641 85.69444336 59.63238281 86.12060547 60.65039062 C87 63 87 63 87 65 C58.29 65 29.58 65 0 65 C0 43.55 0 22.1 0 0 Z " fill="#BBD9FA" transform="translate(374,294)"/>
<path d="M0 0 C10.90389528 8.41604433 17.01018675 19.6843892 19.59375 33.078125 C23.97236905 67.26503524 -9.6731399 113.27209444 -27 141 C-28 142 -28 142 -31.25 142.5625 C-32.4875 142.376875 -33.725 142.19125 -35 142 C-36.86090373 139.36556899 -38.4334776 136.80729221 -40 134 C-40.79736572 132.59681519 -40.79736572 132.59681519 -41.61083984 131.1652832 C-43.44601747 127.91154474 -45.25710928 124.64535623 -47.0625 121.375 C-47.7281806 120.17016076 -48.39387085 118.96532686 -49.05957031 117.76049805 C-50.07115642 115.92898561 -51.08227185 114.09721966 -52.09213257 112.26475525 C-54.13317956 108.56220409 -56.19138293 104.86983279 -58.26171875 101.18359375 C-86.1455398 51.26190802 -86.1455398 51.26190802 -81.3046875 27.6015625 C-76.99981732 13.52933982 -68.34728775 2.43428597 -55.48828125 -4.78515625 C-37.2249288 -13.70180085 -16.46060973 -11.79723294 0 0 Z M-61.8125 14.875 C-64.91616529 18.63963104 -67.11954193 22.51146942 -69 27 C-69.4125 27.928125 -69.825 28.85625 -70.25 29.8125 C-76.10308338 54.68810435 -54.56211802 84.42378742 -43 105 C-42.48131348 105.92876953 -41.96262695 106.85753906 -41.42822266 107.81445312 C-39.92052792 110.50713477 -38.40065812 113.19246278 -36.875 115.875 C-36.41359619 116.69629395 -35.95219238 117.51758789 -35.47680664 118.36376953 C-35.04875732 119.10739746 -34.62070801 119.85102539 -34.1796875 120.6171875 C-33.80569824 121.27315918 -33.43170898 121.92913086 -33.04638672 122.60498047 C-32.7010791 123.06533691 -32.35577148 123.52569336 -32 124 C-31.34 124 -30.68 124 -30 124 C-29.5035498 123.08226807 -29.5035498 123.08226807 -28.99707031 122.14599609 C-27.99414567 120.29234563 -26.99094504 118.43884447 -25.98754883 116.58544922 C-24.81463928 114.41827759 -23.6426227 112.25062247 -22.47143555 110.08251953 C-19.61439258 104.79942492 -16.74523858 99.52493848 -13.81640625 94.28125 C-8.69138645 85.08046602 -3.82487883 75.82822944 0.5625 66.25 C0.96815186 65.36940918 1.37380371 64.48881836 1.79174805 63.58154297 C7.08057988 51.77741841 11.06335052 39.3757441 6.375 26.625 C0.66484276 14.42602772 -8.49438753 6.699314 -21 2 C-35.92624451 -2.69623324 -51.61158464 3.82942286 -61.8125 14.875 Z " fill="#020000" transform="translate(87,30)"/>
<path d="M0 0 C0.70616959 -0.00700928 1.41233917 -0.01401855 2.13990784 -0.02124023 C4.46932542 -0.03881562 6.79752364 -0.02720034 9.12695312 -0.01367188 C10.74833407 -0.01636695 12.36971345 -0.0202495 13.99108887 -0.02526855 C17.38728236 -0.03116294 20.78305472 -0.02260297 24.17919922 -0.00390625 C28.53076448 0.01888374 32.88134295 0.00576027 37.23287201 -0.01819611 C40.58037745 -0.03265598 43.92764924 -0.02804733 47.27516174 -0.01768494 C48.87952288 -0.01501815 50.48390528 -0.01828576 52.08824158 -0.02760315 C54.33153397 -0.03777246 56.57323248 -0.02226523 58.81640625 0 C60.09229614 0.00318237 61.36818604 0.00636475 62.68273926 0.00964355 C66.50544139 0.61162908 67.60419195 1.46842048 69.90820312 4.51757812 C70.99182129 6.46713257 70.99182129 6.46713257 71.82421875 8.53466797 C72.14595062 9.31946533 72.4676825 10.1042627 72.79916382 10.9128418 C73.13420929 11.75951416 73.46925476 12.60618652 73.81445312 13.47851562 C74.17632721 14.36917725 74.53820129 15.25983887 74.91104126 16.17749023 C76.08684541 19.07856322 77.24793397 21.98526099 78.40820312 24.89257812 C79.21198999 26.88848091 80.01651863 28.88408512 80.82177734 30.87939453 C82.43225941 34.87392028 84.03686171 38.8707393 85.63769531 42.86914062 C87.65038736 47.88868224 89.69865642 52.89276986 91.75976562 57.89257812 C92.59311632 59.92668175 93.42509336 61.96133807 94.25610352 63.99639893 C95.01634741 65.85144895 95.7854205 67.70287276 96.5546875 69.55419922 C97.00392578 70.66359863 97.45316406 71.77299805 97.91601562 72.91601562 C98.30418457 73.86138184 98.69235352 74.80674805 99.09228516 75.78076172 C100.0109168 78.86210844 100.19580706 81.31903964 99.90820312 84.51757812 C97.49815702 86.92762423 96.95410979 86.76956928 93.66371155 86.77827454 C92.32824028 86.78890175 92.32824028 86.78890175 90.96578979 86.79974365 C89.9865152 86.79726624 89.0072406 86.79478882 87.99829102 86.79223633 C86.96893936 86.79734726 85.93958771 86.80245819 84.87904358 86.807724 C81.46292368 86.82166929 78.04700442 86.82065951 74.63085938 86.81835938 C72.26435775 86.8222436 69.89785682 86.82657769 67.53135681 86.8313446 C62.56555931 86.83881746 57.59983289 86.83850783 52.6340332 86.83325195 C46.26025074 86.82745603 39.88675874 86.84438637 33.51302433 86.86759663 C28.62408233 86.88230542 23.73521074 86.88320955 18.84625053 86.8800869 C16.49583803 86.88060155 14.14542174 86.8858661 11.79503059 86.89589882 C8.51232988 86.90819047 5.23020085 86.90151508 1.94750977 86.88989258 C0.9702594 86.89753632 -0.00699097 86.90518005 -1.01385498 86.91305542 C-2.35355598 86.90253395 -2.35355598 86.90253395 -3.72032166 86.89179993 C-4.49663909 86.89196767 -5.27295652 86.89213541 -6.07279873 86.89230824 C-8.65635068 86.41279581 -9.5377747 85.61060864 -11.09179688 83.51757812 C-11.3929427 80.92854426 -11.51200722 78.57867741 -11.49584961 75.98852539 C-11.50271286 75.22398041 -11.50957611 74.45943542 -11.51664734 73.67172241 C-11.53496131 71.14228792 -11.53107135 68.61347099 -11.52539062 66.08398438 C-11.52995039 64.32665301 -11.53525534 62.56932343 -11.54127502 60.81199646 C-11.55021526 57.12743896 -11.54777287 53.4430981 -11.5378418 49.75854492 C-11.52635354 45.0359579 -11.54655643 40.31411873 -11.57575893 35.59162998 C-11.59410297 31.96192166 -11.59383204 28.33239311 -11.58812141 24.70265007 C-11.58796796 22.9615162 -11.59403186 21.22037033 -11.60641289 19.47928047 C-11.62128686 17.04438472 -11.61067344 14.6108776 -11.59350586 12.17602539 C-11.60317383 11.45641129 -11.6128418 10.73679718 -11.62280273 9.99537659 C-11.57534937 6.78225137 -11.26695255 4.78738407 -9.50367737 2.0712738 C-6.21213198 -0.04908824 -3.90571821 0.00974179 0 0 Z M-0.09179688 11.51757812 C-0.09179688 32.96757812 -0.09179688 54.41757812 -0.09179688 76.51757812 C28.61820312 76.51757812 57.32820313 76.51757812 86.90820312 76.51757812 C85.03038856 70.88413442 83.14863249 65.42979798 80.86914062 59.97460938 C80.5839859 59.28485519 80.29883118 58.59510101 80.0050354 57.88444519 C79.10063903 55.6984491 78.19210027 53.51420615 77.28320312 51.33007812 C71.7868687 38.07448203 66.34167266 24.79939255 60.90820312 11.51757812 C40.77820313 11.51757812 20.64820313 11.51757812 -0.09179688 11.51757812 Z " fill="#030101" transform="translate(374.091796875,282.482421875)"/>
<path d="M0 0 C9.0423009 6.90609389 15.48295199 16.34451083 17.5625 27.6875 C20.56511129 54.96423386 -0.90373085 84.63296059 -14.03955078 107.24365234 C-15.87690305 110.45564958 -17.62425282 113.71426541 -19.35717773 116.98364258 C-20.94219626 119.48349439 -22.32033407 119.66087138 -25.1875 120.3125 C-28.4375 119.6875 -28.4375 119.6875 -29.84765625 118.05761719 C-33.74281192 111.95177079 -37.28038638 105.70258375 -40.6875 99.3125 C-41.25106201 98.26175293 -41.81462402 97.21100586 -42.39526367 96.12841797 C-43.53899422 93.9930444 -44.68054217 91.85650028 -45.81982422 89.71875 C-47.27882773 86.98482493 -48.7487898 84.25717966 -50.22265625 81.53125 C-71.5122922 41.942617 -71.5122922 41.942617 -66.71484375 22.8046875 C-63.53924457 12.93421041 -57.02993129 4.5222253 -48.4375 -1.3125 C-32.52823414 -9.30856331 -15.29237207 -10.16439102 0 0 Z M-43.4375 9.6875 C-44.51 10.409375 -45.5825 11.13125 -46.6875 11.875 C-52.49836574 17.81793087 -56.4935549 24.82576822 -57 33.1875 C-56.88148759 42.9593872 -52.6069494 51.05011714 -48.4375 59.6875 C-47.97698242 60.64720703 -47.51646484 61.60691406 -47.04199219 62.59570312 C-40.62463375 75.87804258 -33.74848135 88.8771079 -26.4375 101.6875 C-22.98446825 100.53648942 -22.86950723 100.18043194 -21.30859375 97.1015625 C-20.91849121 96.34544678 -20.52838867 95.58933105 -20.12646484 94.81030273 C-19.71348145 93.98602783 -19.30049805 93.16175293 -18.875 92.3125 C-17.98094197 90.5661639 -17.08639722 88.82007691 -16.19140625 87.07421875 C-15.73523926 86.17751465 -15.27907227 85.28081055 -14.80908203 84.35693359 C-13.51246492 81.83340005 -12.18515488 79.32988183 -10.83984375 76.83203125 C-6.58213824 68.9175061 -2.53143648 60.96236635 1.125 52.75 C1.62700928 51.62259399 1.62700928 51.62259399 2.13916016 50.47241211 C5.85465609 41.95846764 7.43846328 32.92108202 4.69140625 23.79296875 C0.85122431 15.59638368 -5.11232906 9.37347317 -13.3671875 5.57421875 C-23.67994622 2.59585205 -34.57663175 3.46934684 -43.4375 9.6875 Z " fill="#020000" transform="translate(242.4375,59.3125)"/>
<path d="M0 0 C1.50818475 0.91198441 2.99072547 1.86843145 4.4375 2.875 C5.08074219 3.28621094 5.72398437 3.69742187 6.38671875 4.12109375 C12.09108933 8.29110001 15.29289753 14.24416198 17.4375 20.875 C18.80060546 30.89538596 17.72249458 39.73498245 11.89453125 48.0859375 C6.85174866 54.29421447 0.35478737 59.16734978 -7.5625 60.875 C-17.87940049 61.77772879 -26.02165337 59.64136481 -34.48828125 53.671875 C-40.74894466 48.24832478 -44.9570145 40.2645685 -45.87890625 32.05859375 C-46.25314373 22.60607924 -43.97942197 15.50882555 -38.0625 8.125 C-28.11271936 -2.17229136 -13.34717143 -6.23680613 0 0 Z " fill="#9EA7B4" transform="translate(225.5625,431.125)"/>
<path d="M0 0 C1.48530079 0.89416101 2.9478134 1.82823338 4.375 2.8125 C5.4475 3.534375 6.52 4.25625 7.625 5 C14.81234412 12.35069285 17.67872007 19.74966573 17.68969727 29.90844727 C17.50391779 39.07979728 14.41167321 45.53229494 8.16015625 52.12890625 C2.05584856 57.88592291 -4.71428474 60.93099059 -13.0625 61.1875 C-22.08906861 60.88868945 -29.78167062 57.74080794 -36.625 51.8125 C-43.25035665 44.01796276 -46.28576094 36.03719782 -45.96484375 25.83203125 C-44.9416734 16.74110388 -40.48726981 9.73797969 -33.625 3.8125 C-23.81517039 -3.26751095 -11.16747612 -5.28100527 0 0 Z " fill="#9EA7B4" transform="translate(432.625,431.1875)"/>
<path d="M0 0 C5.25573292 3.03791347 9.00393825 6.51703155 12.4375 11.5 C12.86933594 12.05816406 13.30117187 12.61632812 13.74609375 13.19140625 C18.46558856 20.4911093 17.46210943 31.27517048 15.84765625 39.5078125 C13.07935068 47.64688602 6.68607993 54.07106501 -0.875 58 C-9.34928702 61.4471676 -17.97038009 61.72554457 -26.578125 58.3984375 C-34.32236499 54.89218711 -40.37936896 48.71673256 -44.2734375 41.1953125 C-46.9789729 33.43944435 -46.79105317 23.75960904 -44 16 C-39.98948858 7.72918751 -34.38258168 2.39519366 -26.00390625 -1.421875 C-17.21843961 -4.17418918 -8.41101905 -3.83180342 0 0 Z " fill="#9FA7B4" transform="translate(115.5625,431.5)"/>
<path d="M0 0 C9.38341828 5.95122837 16.23281442 14.10420676 19 25 C20.22615886 36.72514409 18.0603164 46.51810515 11 56 C4.81853254 62.9659863 -3.0109239 67.72719167 -12.390625 68.4453125 C-20.53918791 68.77650669 -28.02637863 68.66841181 -35 64 C-36.03833984 63.34644531 -36.03833984 63.34644531 -37.09765625 62.6796875 C-45.57844865 56.87787438 -50.70609968 49.00858184 -53 39 C-54.32352957 28.2509608 -52.48480023 19.29210778 -46.16796875 10.4296875 C-35.36178025 -2.48658515 -15.57786532 -8.51348454 0 0 Z M-36 16 C-40.62748539 22.42845267 -42.80679305 28.60457149 -41.625 36.5078125 C-39.86437323 43.7043744 -36.15718205 49.06100859 -30.09375 53.34765625 C-24.05426144 56.91760817 -18.88309209 57.71719628 -12 57 C-3.71029879 54.59794485 1.62494907 49.5736617 5.984375 42.234375 C8.48684605 36.72893869 8.59519731 31.14219842 6.9375 25.375 C3.83354908 17.53198115 -0.50303765 12.30767046 -8.28515625 8.84375 C-18.15019136 5.77778225 -29.06516359 8.12484679 -36 16 Z " fill="#020101" transform="translate(455,48)"/>
<path d="M0 0 C0.69891357 -0.00287018 1.39782715 -0.00574036 2.11791992 -0.00869751 C3.59392101 -0.01073675 5.06994921 -0.00521653 6.54589844 0.00732422 C8.80465138 0.0233817 11.06161518 0.0074728 13.3203125 -0.01171875 C14.75521228 -0.00973629 16.19011095 -0.00589256 17.625 0 C18.93082031 0.00338379 20.23664063 0.00676758 21.58203125 0.01025391 C24.8125 0.3984375 24.8125 0.3984375 26.49014282 1.68063354 C28.80932984 4.69336618 28.23772459 8.46401538 28.2109375 12.1171875 C28.21380768 12.97147339 28.21667786 13.82575928 28.21963501 14.70593262 C28.22167581 16.51148135 28.21614483 18.31705219 28.20361328 20.12255859 C28.18755944 22.88819762 28.20346099 25.65237525 28.22265625 28.41796875 C28.22067382 30.17187823 28.21683015 31.9257868 28.2109375 33.6796875 C28.22004654 34.92196106 28.22004654 34.92196106 28.2293396 36.18933105 C28.15871893 41.9463825 28.15871893 41.9463825 26.49687195 44.11624146 C23.75766785 46.20140837 20.67597857 45.82554264 17.37109375 45.796875 C16.64761246 45.79974518 15.92413116 45.80261536 15.1787262 45.80557251 C13.65145076 45.80761177 12.12414913 45.80209142 10.59692383 45.78955078 C8.25478025 45.77347032 5.91435608 45.78941443 3.57226562 45.80859375 C2.08853785 45.80661175 0.60481114 45.80276896 -0.87890625 45.796875 C-1.93205772 45.80598404 -1.93205772 45.80598404 -3.00648499 45.8152771 C-4.97875977 45.78662109 -4.97875977 45.78662109 -8.1875 45.3984375 C-10.78499344 41.50219734 -10.49325629 38.20043129 -10.48828125 33.6796875 C-10.49256638 32.82540161 -10.4968515 31.97111572 -10.50126648 31.09094238 C-10.50700746 29.28540941 -10.50751174 27.4798533 -10.50317383 25.67431641 C-10.50001182 22.90877977 -10.52348227 20.14431076 -10.54882812 17.37890625 C-10.5511009 15.62500135 -10.55180471 13.87109357 -10.55078125 12.1171875 C-10.559991 11.28900513 -10.56920074 10.46082275 -10.57868958 9.60754395 C-10.53214075 3.84647804 -10.53214075 3.84647804 -8.86613464 1.68063354 C-6.11221498 -0.42290037 -3.39719559 0.0088032 0 0 Z " fill="#020201" transform="translate(100.1875,315.6015625)"/>
<path d="M0 0 C0.67434586 -0.00287018 1.34869171 -0.00574036 2.04347229 -0.00869751 C3.46819906 -0.01073673 4.89295392 -0.00521663 6.31762695 0.00732422 C8.49299129 0.02335705 10.6664909 0.00748599 12.84179688 -0.01171875 C14.22786867 -0.0097358 15.61393931 -0.00589105 17 0 C18.25868896 0.00338379 19.51737793 0.00676758 20.81420898 0.01025391 C25.87593881 0.61442405 25.87593881 0.61442405 28.06640625 3.3984375 C28.4588165 6.42773003 28.60358398 9.08842746 28.5625 12.1171875 C28.56395523 12.97147339 28.56541046 13.82575928 28.56690979 14.70593262 C28.56525033 16.51150931 28.55368368 18.31710008 28.53295898 20.12255859 C28.50401229 22.88830569 28.51234656 25.6521355 28.52539062 28.41796875 C28.51915296 30.17188433 28.5107618 31.92579385 28.5 33.6796875 C28.50293564 34.50786987 28.50587128 35.33605225 28.50889587 36.18933105 C28.4142035 41.94440178 28.4142035 41.94440178 26.74978638 44.11723328 C24.00974868 46.20264929 20.92867289 45.80517969 17.625 45.76171875 C16.53977806 45.76246651 16.53977806 45.76246651 15.43263245 45.76322937 C13.905337 45.76089139 12.37803753 45.75117903 10.85083008 45.73461914 C8.50892852 45.71098818 6.16816265 45.71406441 3.82617188 45.72070312 C2.34244111 45.71512749 0.85871515 45.70801832 -0.625 45.69921875 C-1.67815147 45.70058586 -1.67815147 45.70058586 -2.75257874 45.70198059 C-7.70254524 45.62948601 -7.70254524 45.62948601 -9.93359375 43.3984375 C-10.14596267 40.42055334 -10.23755024 37.53807703 -10.234375 34.55859375 C-10.23866013 33.68069687 -10.24294525 32.80279999 -10.24736023 31.89830017 C-10.25310875 30.03971215 -10.25359996 28.18110163 -10.24926758 26.32250977 C-10.24611011 23.47568418 -10.26955112 20.62989993 -10.29492188 17.78320312 C-10.29719503 15.97916798 -10.29789829 14.17513004 -10.296875 12.37109375 C-10.30608475 11.51790054 -10.31529449 10.66470734 -10.32478333 9.78565979 C-10.27819567 3.84590372 -10.27819567 3.84590372 -8.60549927 1.67390442 C-5.90712813 -0.38463483 -3.33321634 0.00896887 0 0 Z " fill="#030201" transform="translate(149.93359375,315.6015625)"/>
<path d="M0 0 C11.40166063 3.77715112 21.91865731 9.38591117 31.171875 17.05078125 C32.02136719 17.74945313 32.87085938 18.448125 33.74609375 19.16796875 C55.50269449 37.89263891 66.82097022 64.81573816 70.23754883 92.89477539 C70.171875 95.05078125 70.171875 95.05078125 68.046875 98.23828125 C65.171875 100.05078125 65.171875 100.05078125 62.484375 99.98828125 C60.171875 99.05078125 60.171875 99.05078125 58.171875 97.05078125 C57.67285156 95.25756836 57.67285156 95.25756836 57.3125 93.078125 C57.09847534 91.86527832 57.09847534 91.86527832 56.88012695 90.62792969 C56.72890381 89.7568457 56.57768066 88.88576172 56.421875 87.98828125 C52.31386879 66.27369935 44.11784842 47.60101518 28.171875 32.05078125 C27.44355469 31.3134375 26.71523438 30.57609375 25.96484375 29.81640625 C16.86222983 21.10221556 5.96495069 15.87472721 -5.96484375 12.25390625 C-9.07868794 10.94549696 -10.22539681 9.98911627 -11.828125 7.05078125 C-11.765625 4.48828125 -11.765625 4.48828125 -10.828125 2.05078125 C-6.9826858 -1.52714913 -4.87269404 -1.17492475 0 0 Z " fill="#000000" transform="translate(284.828125,35.94921875)"/>
<path d="M0 0 C6.19088269 3.6372777 11.38189068 9.29865442 13.25390625 16.32421875 C14.35224086 25.58753138 13.97057929 33.69737409 8.25390625 41.32421875 C2.27657264 48.04075354 -4.05449006 51.29659856 -12.99609375 51.88671875 C-20.47293272 51.65794204 -27.0981624 48.4694824 -32.73046875 43.61328125 C-38.87187282 36.89422037 -40.34918924 30.56553662 -40.08203125 21.60546875 C-39.314123 14.10496954 -36.94341835 9.05805583 -31.43359375 3.88671875 C-21.89128665 -3.7812066 -11.23325279 -5.13880745 0 0 Z M-24.55859375 13.69921875 C-27.86395236 17.66564908 -28.97606511 20.49799221 -28.80859375 25.63671875 C-28.05879022 31.16304849 -24.89751401 34.77103809 -20.74609375 38.32421875 C-15.86302477 39.95190841 -10.47008371 40.4966968 -5.640625 38.41796875 C-1.63458688 35.75297111 0.70867945 32.95989914 2.25390625 28.32421875 C3.0209554 22.9332677 2.3010311 18.94744266 -0.74609375 14.32421875 C-8.46539469 7.01119681 -16.29388573 6.72013198 -24.55859375 13.69921875 Z " fill="#030101" transform="translate(68.74609375,46.67578125)"/>
<path d="M0 0 C6.09119575 2.6939535 10.31800947 7.68015884 13.8515625 13.2109375 C15.98949042 18.79163197 15.77946679 26.27131585 13.80859375 31.8671875 C10.11902062 38.12975241 4.60750166 43.10561612 -2.31640625 45.3828125 C-9.9981259 46.51279672 -15.75408359 45.5425032 -22.1875 41.1640625 C-27.1550202 37.00775202 -30.74423001 31.69733063 -31.60546875 25.203125 C-32.01346322 18.31016581 -30.35061135 12.9939371 -26.31640625 7.3828125 C-23.84281411 5.01208261 -21.26584222 3.11846468 -18.31640625 1.3828125 C-17.69378906 1.00898437 -17.07117188 0.63515625 -16.4296875 0.25 C-11.42727691 -1.8027452 -5.15476305 -1.37344446 0 0 Z M-18.19140625 15.5703125 C-19.66744901 19.26041941 -20.11257559 22.50812169 -19.31640625 26.3828125 C-16.91343511 30.31494709 -15.12117769 32.01023313 -10.94140625 33.9453125 C-6.35688125 34.49861724 -4.25524122 33.76097701 -0.31640625 31.3828125 C2.30821884 28.35439893 3.52493336 26.33477482 4.18359375 22.3828125 C3.37032286 17.50318717 1.13167604 14.49672195 -2.75390625 11.5078125 C-8.71880381 8.88907699 -13.97011993 10.64547846 -18.19140625 15.5703125 Z " fill="#030101" transform="translate(225.31640625,72.6171875)"/>
<path d="M0 0 C5.10439672 4.07450583 10.48354702 8.41904882 14 14 C14.3125 17.625 14.3125 17.625 14 21 C12 23 12 23 8.73828125 23.48046875 C3.9788995 22.86876138 2.16668895 20.77869608 -0.8125 17.3125 C-5.69184018 12.04339686 -10.17378495 8.53133809 -17 6 C-18.11375 5.566875 -19.2275 5.13375 -20.375 4.6875 C-31.96850852 2.48873114 -41.63788947 4.47368253 -51.625 10.6875 C-55.06520736 13.07721547 -57.77767638 15.8112413 -60.625 18.875 C-64.49979971 22.91266344 -64.49979971 22.91266344 -68.9375 23.6875 C-72 23 -72 23 -74 21 C-74.38996438 17.60308133 -74.31000216 15.58909777 -72.70703125 12.54296875 C-54.37312194 -10.2515618 -24.96699778 -15.61654867 0 0 Z " fill="#000000" transform="translate(185,24)"/>
<path d="M0 0 C7.26 0 14.52 0 22 0 C22 18.15 22 36.3 22 55 C17 50 17 50 15.5625 47.6875 C14.04702488 45.75226278 14.04702488 45.75226278 11.25 45.25 C6.77875559 46.28182563 5.18856976 48.7271166 2.41796875 52.25 C1.95003906 52.8275 1.48210937 53.405 1 54 C0.67 54 0.34 54 0 54 C0 36.18 0 18.36 0 0 Z " fill="#E7AA51" transform="translate(210,232)"/>
<path d="M0 0 C7.26 0 14.52 0 22 0 C22 18.15 22 36.3 22 55 C17 50 17 50 15.5625 47.6875 C14.04702488 45.75226278 14.04702488 45.75226278 11.25 45.25 C6.77875559 46.28182563 5.18856976 48.7271166 2.41796875 52.25 C1.95003906 52.8275 1.48210937 53.405 1 54 C0.67 54 0.34 54 0 54 C0 36.18 0 18.36 0 0 Z " fill="#E8AB52" transform="translate(119,232)"/>
<path d="M0 0 C5.67458259 1.89152753 9.32628019 5.65256038 12 11 C12.50964647 16.58104654 12.78681405 21.42637191 10.25 26.5 C9.5075 27.325 8.765 28.15 8 29 C7.360625 29.7425 6.72125 30.485 6.0625 31.25 C1.92501148 34.76059632 -2.26421393 35.57476927 -7.58984375 35.44140625 C-12.8390263 34.48004867 -16.96609261 31.29634705 -20.453125 27.359375 C-23.45646617 22.83321296 -23.90656312 18.21736325 -23 13 C-19.16268704 2.221031 -10.64308538 -0.81406035 0 0 Z " fill="#040505" transform="translate(217,443)"/>
<path d="M0 0 C4.49366208 2.32122942 7.96628645 5.68949507 9.89453125 10.3515625 C10.84315356 16.56729723 10.54194277 22.06910444 6.89453125 27.3515625 C2.62396793 32.29642529 -0.89316531 34.34669504 -7.35546875 34.8515625 C-13.06700991 34.70853559 -16.95097291 32.10722674 -21.10546875 28.3515625 C-24.76463188 24.22024929 -25.71056349 19.87909046 -25.41796875 14.484375 C-24.53199459 8.43760136 -21.24098145 5.24969226 -16.7265625 1.55078125 C-12.06708549 -1.89610897 -5.4093009 -1.66594425 0 0 Z " fill="#040405" transform="translate(426.10546875,443.6484375)"/>
<path d="M0 0 C6.02186269 2.00728756 8.83923911 5.81030536 12.3125 10.9375 C14.19787284 16.59361851 12.97885812 21.64998894 10.453125 26.84375 C7.37777648 31.40717038 3.04027222 34.39994627 -2.375 35.46875 C-8.74018566 35.72679807 -12.98407063 33.78684649 -17.75 29.5625 C-22.19303363 24.50237837 -22.43716591 20.53169178 -22.31640625 13.9140625 C-21.74380621 8.64048686 -19.21801959 6.07301726 -15.375 2.6875 C-10.4577568 -0.80633069 -5.8950431 -0.45089565 0 0 Z " fill="#040404" transform="translate(106,443)"/>
<path d="M0 0 C1.90228615 -0.01902626 1.90228615 -0.01902626 3.84300232 -0.03843689 C5.22875125 -0.03638537 6.61449906 -0.03339728 8.00024414 -0.02954102 C9.42127228 -0.03410193 10.84229821 -0.03940723 12.26332092 -0.04542542 C15.24171915 -0.05436145 18.21984933 -0.05192832 21.19824219 -0.04199219 C25.01288405 -0.03050567 28.82659979 -0.05070519 32.64111996 -0.07990932 C35.5759925 -0.0982675 38.51064299 -0.09797967 41.44555855 -0.0922718 C42.85176454 -0.09211852 44.25798551 -0.09816907 45.66413689 -0.11056328 C47.63150832 -0.12545988 49.59903198 -0.11217306 51.56640625 -0.09765625 C52.68542831 -0.09749008 53.80445038 -0.09732391 54.9573822 -0.09715271 C58.49719446 0.51663799 59.71375965 1.55864711 61.84790039 4.40405273 C61.68639835 7.79559569 61.26493282 8.98702031 58.84790039 11.40405273 C56.11523438 11.65802002 56.11523438 11.65802002 52.59399414 11.6628418 C51.27923096 11.66914612 49.96446777 11.67545044 48.60986328 11.6819458 C47.1683743 11.67836613 45.72688652 11.6742642 44.28540039 11.66967773 C42.81331315 11.67102441 41.34122634 11.67296497 39.86914062 11.67547607 C36.78226492 11.67842723 33.69550486 11.67413005 30.60864258 11.66479492 C26.6471791 11.6534003 22.68598661 11.65995983 18.72453308 11.67193985 C15.68426462 11.67915874 12.64406066 11.67687041 9.60379028 11.67168427 C8.14291349 11.67034784 6.68203089 11.67199523 5.22116089 11.67664337 C3.18137724 11.68170879 1.14157313 11.67262253 -0.89819336 11.6628418 C-2.64120728 11.66045502 -2.64120728 11.66045502 -4.41943359 11.65802002 C-7.15209961 11.40405273 -7.15209961 11.40405273 -9.15209961 9.40405273 C-9.70418196 4.21447861 -9.70418196 4.21447861 -8.01707458 1.73789978 C-5.32839345 -0.1850694 -3.28632822 0.0158787 0 0 Z " fill="#070603" transform="translate(199.152099609375,332.595947265625)"/>
<path d="M0 0 C1.31153549 -0.00953201 2.62307098 -0.01906403 3.97434998 -0.02888489 C5.41266913 -0.02862347 6.85098831 -0.02768646 8.28930664 -0.02612305 C9.75899884 -0.03000856 11.22868991 -0.03434293 12.69837952 -0.03910828 C15.78105303 -0.04657671 18.86361204 -0.04627486 21.94628906 -0.04101562 C25.89877438 -0.03522153 29.85079101 -0.05214703 33.80319881 -0.0753603 C36.83922572 -0.09008547 39.87513946 -0.090971 42.91119576 -0.08785057 C44.36846406 -0.08836445 45.82573858 -0.09361466 47.28297234 -0.10366249 C49.32012236 -0.11598395 51.35736683 -0.10730803 53.39453125 -0.09765625 C54.55431992 -0.09828568 55.71410858 -0.0989151 56.90904236 -0.0995636 C59.76196289 0.2746582 59.76196289 0.2746582 61.66773987 1.60652161 C62.76196289 3.2746582 62.76196289 3.2746582 62.63696289 6.3371582 C61.76196289 9.2746582 61.76196289 9.2746582 58.76196289 11.2746582 C55.99169922 11.53535461 55.99169922 11.53535461 52.59399414 11.54931641 C51.32257568 11.55884842 50.05115723 11.56838043 48.74121094 11.57820129 C47.35229464 11.57793989 45.96337833 11.57700297 44.57446289 11.57543945 C43.15104039 11.57932627 41.72761905 11.58366091 40.30419922 11.58842468 C37.3216577 11.5958854 34.33923456 11.59559643 31.35668945 11.59033203 C27.53314238 11.58453292 23.71007901 11.60147921 19.88661194 11.6246767 C16.9475216 11.63940121 14.00854817 11.64028761 11.06942749 11.63716698 C9.65960735 11.63768069 8.24978075 11.64292784 6.83999634 11.6529789 C4.8700123 11.66530171 2.89993058 11.65662385 0.92993164 11.64697266 C-0.19131104 11.64760208 -1.31255371 11.64823151 -2.46777344 11.64888 C-5.23803711 11.2746582 -5.23803711 11.2746582 -7.10400391 9.9427948 C-8.84871237 7.37636902 -8.5585249 5.28724347 -8.23803711 2.2746582 C-5.47684132 -0.48653759 -3.86702945 0.01537276 0 0 Z " fill="#060503" transform="translate(198.238037109375,315.725341796875)"/>
<path d="M0 0 C1.31153549 -0.00953201 2.62307098 -0.01906403 3.97434998 -0.02888489 C5.41266913 -0.02862347 6.85098831 -0.02768646 8.28930664 -0.02612305 C9.75899884 -0.03000856 11.22868991 -0.03434293 12.69837952 -0.03910828 C15.78105303 -0.04657671 18.86361204 -0.04627486 21.94628906 -0.04101562 C25.89877438 -0.03522153 29.85079101 -0.05214703 33.80319881 -0.0753603 C36.83922572 -0.09008547 39.87513946 -0.090971 42.91119576 -0.08785057 C44.36846406 -0.08836445 45.82573858 -0.09361466 47.28297234 -0.10366249 C49.32012236 -0.11598395 51.35736683 -0.10730803 53.39453125 -0.09765625 C54.55431992 -0.09828568 55.71410858 -0.0989151 56.90904236 -0.0995636 C59.76196289 0.2746582 59.76196289 0.2746582 61.67164612 1.63777161 C62.76196289 3.2746582 62.76196289 3.2746582 62.57446289 5.8371582 C61.76196289 8.2746582 61.76196289 8.2746582 59.76196289 10.2746582 C57.02929688 10.52862549 57.02929688 10.52862549 53.50805664 10.53344727 C52.19329346 10.53975159 50.87853027 10.54605591 49.52392578 10.55255127 C48.0824368 10.5489716 46.64094902 10.54486967 45.19946289 10.5402832 C43.72737565 10.54162988 42.25528884 10.54357043 40.78320312 10.54608154 C37.69632742 10.5490327 34.60956736 10.54473552 31.52270508 10.53540039 C27.5612416 10.52400577 23.60004911 10.5305653 19.63859558 10.54254532 C16.59832712 10.54976421 13.55812316 10.54747588 10.51785278 10.54228973 C9.05697599 10.54095331 7.59609339 10.5426007 6.13522339 10.54724884 C4.09543974 10.55231426 2.05563563 10.543228 0.01586914 10.53344727 C-1.72714478 10.53106049 -1.72714478 10.53106049 -3.50537109 10.52862549 C-6.23803711 10.2746582 -6.23803711 10.2746582 -8.23803711 8.2746582 C-8.48803711 5.2746582 -8.48803711 5.2746582 -8.23803711 2.2746582 C-5.47684132 -0.48653759 -3.86702945 0.01537276 0 0 Z " fill="#010100" transform="translate(198.238037109375,350.725341796875)"/>
<path d="M0 0 C5.61 0 11.22 0 17 0 C17 7.92 17 15.84 17 24 C11.39 24 5.78 24 0 24 C0 16.08 0 8.16 0 0 Z " fill="#C7833E" transform="translate(150,327)"/>
<path d="M0 0 C5.28 0 10.56 0 16 0 C16 7.92 16 15.84 16 24 C10.72 24 5.44 24 0 24 C0 16.08 0 8.16 0 0 Z " fill="#D08942" transform="translate(101,327)"/>
<path d="M0 0 C1.5149707 -0.00580078 1.5149707 -0.00580078 3.06054688 -0.01171875 C4.64125977 0.00568359 4.64125977 0.00568359 6.25390625 0.0234375 C7.30384766 0.01183594 8.35378906 0.00023437 9.43554688 -0.01171875 C10.44681641 -0.00785156 11.45808594 -0.00398438 12.5 0 C13.88529907 0.00507568 13.88529907 0.00507568 15.29858398 0.01025391 C18.22854277 0.46197838 19.62034694 1.45602931 21.81640625 3.3984375 C21.56079302 5.7415588 21.22369853 8.07687153 20.81640625 10.3984375 C16.58261439 12.51533343 10.96800843 11.58336755 6.31640625 11.5859375 C5.14980469 11.59818359 3.98320312 11.61042969 2.78125 11.62304688 C1.11255859 11.62594727 1.11255859 11.62594727 -0.58984375 11.62890625 C-1.61400391 11.63301514 -2.63816406 11.63712402 -3.69335938 11.64135742 C-6.18359375 11.3984375 -6.18359375 11.3984375 -8.18359375 9.3984375 C-8.73946251 4.17327111 -8.73946251 4.17327111 -6.98803711 1.73193359 C-4.56835138 -0.05623086 -2.99167735 0.0109748 0 0 Z " fill="#0A0303" transform="translate(372.18359375,379.6015625)"/>
<path d="M0 0 C2.38460953 2.07691798 2.8959746 3.40556916 3.4375 6.5 C2.84278924 9.89834723 1.79734842 11.01241034 -1 13 C-4 13.5625 -4 13.5625 -7 13 C-9.4375 10.875 -9.4375 10.875 -11 8 C-10.9375 4.8125 -10.9375 4.8125 -10 2 C-6.29584707 -0.46943529 -4.37855495 -0.46913089 0 0 Z " fill="#D8D8D8" transform="translate(105,454)"/>
<path d="M0 0 C3.5625 0.3125 3.5625 0.3125 5.5 1.375 C7.19585287 4.46743758 6.99310657 6.86764741 6.5625 10.3125 C4.48558202 12.69710953 3.15693084 13.2084746 0.0625 13.75 C-2.4375 13.3125 -2.4375 13.3125 -4.8125 11.75 C-6.4375 9.3125 -6.4375 9.3125 -6.3125 5.6875 C-5.14951423 1.20169775 -4.66151968 0.42377452 0 0 Z " fill="#DEDEDE" transform="translate(418.4375,453.6875)"/>
<path d="M0 0 C3.5625 0.3125 3.5625 0.3125 5.5 1.375 C7.19585287 4.46743758 6.99310657 6.86764741 6.5625 10.3125 C4.48558202 12.69710953 3.15693084 13.2084746 0.0625 13.75 C-2.4375 13.3125 -2.4375 13.3125 -4.8125 11.75 C-6.4375 9.3125 -6.4375 9.3125 -6.3125 5.6875 C-5.14951423 1.20169775 -4.66151968 0.42377452 0 0 Z " fill="#DDDDDD" transform="translate(211.4375,453.6875)"/>
</svg>
